<svg xmlns="http://www.w3.org/2000/svg" width="24" height="24" viewBox="0 0 24 24" fill="none" stroke="currentColor" stroke-width="1.5" stroke-linecap="round" stroke-linejoin="round">
  <path d="M16 5l0 -2"/>
  <path d="M16 5a4 4 0 0 1 4 4"/>
  <path d="M16 5a4 4 0 0 0 -4 4"/>
  <path d="M8 13l0 -2"/>
  <path d="M8 13a4 4 0 0 1 4 4"/>
  <path d="M8 13a4 4 0 0 0 -4 4"/>
  <path d="M8 21l0 -4"/>
  <path d="M16 17l0 -8"/>
  <path d="M16 17a4 4 0 0 1 4 4"/>
  <path d="M16 17a4 4 0 0 0 -4 4"/>
</svg>
